<?xml version="1.0" encoding="utf-8"?>
<!-- Generator: Adobe Illustrator 19.0.0, SVG Export Plug-In . SVG Version: 6.00 Build 0)  -->
<svg version="1.1" id="Layer_1" xmlns="http://www.w3.org/2000/svg" xmlns:xlink="http://www.w3.org/1999/xlink" x="0px" y="0px"
	 viewBox="0 0 600 350" style="enable-background:new 0 0 600 350;" xml:space="preserve">
<style type="text/css">
	.st0{fill:url(#XMLID_10_);}
	.st1{fill:url(#XMLID_11_);}
	.st2{fill:url(#XMLID_15_);}
	.st3{fill:url(#XMLID_16_);}
	.st4{fill:url(#XMLID_17_);}
	.st5{fill:url(#XMLID_40_);}
	.st6{fill:url(#XMLID_41_);}
	.st7{fill:url(#XMLID_42_);}
	.st8{fill:#00796D;}
	.st9{fill:url(#XMLID_44_);}
	.st10{fill:url(#XMLID_45_);}
	.st11{opacity:0.35;}
	.st12{filter:url(#Adobe_OpacityMaskFilter);}
	.st13{mask:url(#XMLID_46_);}
	.st14{fill:#898B8E;}
	.st15{fill:url(#XMLID_180_);}
	.st16{fill:#5C5C5F;}
	.st17{fill:url(#XMLID_182_);}
	.st18{fill:#4B4A49;}
	.st19{fill:url(#XMLID_183_);}
	.st20{fill:url(#XMLID_188_);}
	.st21{fill:#B2B1B1;}
	.st22{fill:#3C3C3B;}
	.st23{fill:#595958;}
	.st24{fill:#3D3D3C;}
	.st25{fill:url(#XMLID_190_);}
	.st26{fill:url(#XMLID_192_);}
	.st27{fill:url(#XMLID_193_);}
	.st28{fill:url(#XMLID_195_);}
	.st29{fill:url(#XMLID_196_);}
	.st30{fill:url(#XMLID_199_);}
	.st31{fill:url(#XMLID_200_);}
	.st32{fill:url(#XMLID_202_);}
	.st33{fill:#D10473;}
	.st34{fill:#008558;}
	.st35{fill:#FEEB00;}
	.st36{fill:url(#XMLID_203_);}
	.st37{fill:url(#XMLID_206_);}
	.st38{fill:url(#XMLID_207_);}
	.st39{fill:url(#XMLID_208_);}
	.st40{fill:url(#XMLID_213_);}
	.st41{fill:url(#XMLID_214_);}
	.st42{fill:url(#XMLID_215_);}
	.st43{fill:url(#XMLID_216_);}
	.st44{fill:url(#XMLID_217_);}
	.st45{fill:url(#XMLID_219_);}
	.st46{fill:url(#XMLID_220_);}
	.st47{fill:url(#XMLID_221_);}
	.st48{fill:url(#XMLID_222_);}
	.st49{fill:url(#XMLID_224_);}
	.st50{fill:url(#XMLID_225_);}
	.st51{fill:url(#XMLID_226_);}
	.st52{fill:url(#XMLID_228_);}
	.st53{fill:url(#XMLID_229_);}
	.st54{fill:url(#XMLID_230_);}
	.st55{fill:url(#XMLID_231_);}
	.st56{fill:url(#XMLID_232_);}
	.st57{fill:url(#XMLID_233_);}
	.st58{fill:url(#XMLID_237_);}
	.st59{fill:url(#XMLID_238_);}
	.st60{fill:url(#XMLID_239_);}
	.st61{fill:url(#XMLID_241_);}
	.st62{fill:url(#XMLID_243_);}
	.st63{fill:url(#XMLID_245_);}
	.st64{fill:url(#XMLID_246_);}
	.st65{fill:url(#XMLID_247_);}
	.st66{fill:url(#XMLID_249_);}
	.st67{fill:url(#XMLID_251_);}
	.st68{fill:url(#XMLID_253_);}
	.st69{fill:url(#XMLID_254_);}
	.st70{fill:url(#XMLID_255_);}
	.st71{fill:url(#XMLID_257_);}
	.st72{fill:url(#XMLID_259_);}
	.st73{fill:url(#XMLID_261_);}
	.st74{fill:url(#XMLID_262_);}
</style>
<g id="XMLID_3_">
	<g id="XMLID_393_">
		<g id="XMLID_421_">
			<g id="XMLID_424_">
				
					<linearGradient id="XMLID_10_" gradientUnits="userSpaceOnUse" x1="510.6721" y1="148.5001" x2="557.6192" y2="148.5001" gradientTransform="matrix(0.9985 5.510000e-002 -5.510000e-002 0.9985 11.6472 -27.711)">
					<stop  offset="0" style="stop-color:#00BDA9"/>
					<stop  offset="0.1824" style="stop-color:#00AB8B"/>
					<stop  offset="1" style="stop-color:#009D82"/>
				</linearGradient>
				<path id="XMLID_161_" class="st0" d="M520.9,128.2c-3.4,7-5.7,15-7,22.7c-1.3,7.8-1.7,15.3-1.3,21.9c0.6,13.1,3.8,22,4.5,22.1
					c0,0,0.3-1.5,0.8-4.1c0.2-1.3,0.6-2.9,1.1-4.7c0.2-0.9,0.5-1.9,0.7-2.9c0.3-1,0.6-2.1,0.9-3.2c1.2-4.4,3-9.5,5.1-14.9
					c2.1-5.3,4.7-10.9,7.6-16.4c2.9-5.4,6.1-10.6,9.3-15.4c3.3-4.7,6.5-9,9.5-12.5c0.7-0.9,1.5-1.7,2.1-2.5c0.7-0.8,1.4-1.5,2-2.2
					c1.3-1.4,2.4-2.6,3.3-3.5c1.9-1.9,3-3,3-3c-1.7-1.7-4-3.2-7-4.1c-2.9-0.8-6.5-1.1-10.4-0.2c-3.9,0.9-8.2,3-12.4,6.7
					c-1.1,0.9-2.1,1.9-3.2,3c-1,1.1-2,2.4-3,3.7c-0.5,0.7-1,1.4-1.5,2.1c-0.5,0.7-0.9,1.5-1.4,2.3
					C522.7,124.7,521.7,126.4,520.9,128.2z"/>
			</g>
			<g id="XMLID_422_">
				
					<linearGradient id="XMLID_11_" gradientUnits="userSpaceOnUse" x1="516.9474" y1="150.587" x2="563.9291" y2="150.587" gradientTransform="matrix(0.9985 5.510000e-002 -5.510000e-002 0.9985 11.6472 -27.711)">
					<stop  offset="0" style="stop-color:#00796D"/>
					<stop  offset="1" style="stop-color:#009D82"/>
				</linearGradient>
				<path id="XMLID_160_" class="st1" d="M556.6,150.4c-3.9,4.6-8.4,9.3-12.8,14.2c-4.4,4.8-8.8,9.7-12.6,14.2
					c-7.7,8.9-13.2,16.4-14.1,16.2c0,0,0.3-1.5,0.8-4.1c0.2-1.3,0.6-2.9,1.1-4.7c0.2-0.9,0.5-1.9,0.7-2.9c0.3-1,0.6-2.1,0.9-3.2
					c1.2-4.4,3-9.5,5.1-14.9c2.1-5.3,4.7-10.9,7.6-16.4c2.9-5.4,6.1-10.6,9.3-15.4c3.3-4.7,6.5-9,9.5-12.5c0.7-0.9,1.5-1.7,2.1-2.5
					c0.7-0.8,1.4-1.5,2-2.2c1.3-1.4,2.4-2.6,3.3-3.5c1.9-1.9,3-3,3-3c1.7,1.7,3.1,4.1,4.1,7c1,2.9,1.4,6.1,1.3,9.7
					c-0.2,3.5-1.1,7.3-2.9,11.3c-0.4,1-1,2-1.5,3c-0.6,1-1.2,2.1-1.9,3.2c-0.4,0.5-0.7,1.1-1.1,1.6c-0.4,0.6-0.8,1.1-1.2,1.7
					C558.5,148.1,557.5,149.2,556.6,150.4z"/>
			</g>
		</g>
		<g id="XMLID_416_">
			<g id="XMLID_419_">
				<linearGradient id="XMLID_15_" gradientUnits="userSpaceOnUse" x1="497.6117" y1="286.6646" x2="571.3845" y2="286.6646">
					<stop  offset="0" style="stop-color:#00BDA9"/>
					<stop  offset="0.1824" style="stop-color:#00AB8B"/>
					<stop  offset="1" style="stop-color:#009D82"/>
				</linearGradient>
				<path id="XMLID_159_" class="st2" d="M537.3,270.1c-5.9,2.1-11.7,5.3-16.8,9c-5.1,3.7-9.6,7.8-13.1,11.7
					c-7,7.8-10.2,14.6-9.9,15.1c0,0,1-0.7,2.8-1.9c0.9-0.6,2-1.3,3.3-2.1c0.6-0.4,1.3-0.8,2-1.2c0.7-0.4,1.5-0.8,2.3-1.3
					c3.2-1.8,7-3.7,11.2-5.6c4.2-1.8,8.8-3.5,13.5-5c4.7-1.4,9.5-2.6,14-3.5c4.5-0.8,8.8-1.5,12.4-1.7c0.9-0.1,1.8-0.2,2.6-0.2
					c0.8,0,1.6-0.1,2.4-0.1c1.5-0.1,2.8-0.1,3.9-0.1c2.1,0,3.4,0,3.4,0c0-1.9-0.5-4.1-1.7-6.2c-1.2-2.1-3.1-4.3-5.8-5.9
					c-2.7-1.7-6.3-2.9-10.8-3.2c-1.1-0.1-2.3-0.1-3.5-0.1c-1.2,0.1-2.5,0.2-3.8,0.4c-0.7,0.1-1.3,0.2-2,0.3
					c-0.7,0.1-1.4,0.3-2.1,0.5C540.2,269.1,538.8,269.5,537.3,270.1z"/>
			</g>
			<g id="XMLID_417_">
				<linearGradient id="XMLID_16_" gradientUnits="userSpaceOnUse" x1="497.6335" y1="294.4572" x2="571.3843" y2="294.4572">
					<stop  offset="0" style="stop-color:#00796D"/>
					<stop  offset="1" style="stop-color:#009D82"/>
				</linearGradient>
				<path id="XMLID_158_" class="st3" d="M545.1,302.7c-4.8,0.4-10,0.6-15.2,0.9c-5.2,0.3-10.4,0.5-15.1,1
					c-9.4,0.7-16.7,1.9-17.1,1.3c0,0,1-0.7,2.8-1.9c0.9-0.6,2-1.3,3.3-2.1c0.6-0.4,1.3-0.8,2-1.2c0.7-0.4,1.5-0.8,2.3-1.3
					c3.2-1.8,7-3.7,11.2-5.6c4.2-1.8,8.8-3.5,13.5-5c4.7-1.4,9.5-2.6,14-3.5c4.5-0.8,8.8-1.5,12.4-1.7c0.9-0.1,1.8-0.2,2.6-0.2
					c0.8,0,1.6-0.1,2.4-0.1c1.5-0.1,2.8-0.1,3.9-0.1c2.1,0,3.4,0,3.4,0c0,1.9-0.5,4.1-1.6,6.3c-1,2.2-2.6,4.3-4.7,6.2
					c-2.1,1.9-4.7,3.6-8,4.8c-0.8,0.3-1.7,0.6-2.6,0.8c-0.9,0.3-1.8,0.5-2.8,0.7c-0.5,0.1-1,0.2-1.5,0.3c-0.5,0.1-1.1,0.2-1.6,0.3
					C547.5,302.5,546.3,302.6,545.1,302.7z"/>
			</g>
		</g>
		<g id="XMLID_411_">
			<g id="XMLID_414_">
				
					<linearGradient id="XMLID_17_" gradientUnits="userSpaceOnUse" x1="533.6815" y1="246.3454" x2="584.0516" y2="246.3454" gradientTransform="matrix(0.7043 0.7099 -0.7099 0.7043 302.1386 -307.7588)">
					<stop  offset="0" style="stop-color:#00BDA9"/>
					<stop  offset="0.1824" style="stop-color:#00AB8B"/>
					<stop  offset="1" style="stop-color:#009D82"/>
				</linearGradient>
				<path id="XMLID_157_" class="st4" d="M548.4,269.6c-9.7,7.7-21.1,14.1-32.5,18.8c-1.4,0.6-2.8,1.2-4.3,1.7
					c-1.4,0.5-2.9,1-4.3,1.5c-2.8,1-5.6,2-8.4,2.7c-2.8,0.7-5.5,1.5-8.1,2.1c-2.7,0.5-5.3,1-7.8,1.5c-2.5,0.5-4.9,0.7-7.2,1
					c-2.3,0.2-4.5,0.5-6.6,0.6c-4.2,0.2-7.8,0.3-10.8,0.2c-6.1-0.3-9.6-0.8-9.7-1.2c0,0,2.4-0.7,6.6-1.8c1-0.3,2.2-0.6,3.5-1
					c1.2-0.4,2.6-0.9,4-1.3c1.4-0.5,3-1,4.6-1.5c1.6-0.6,3.2-1.3,5-1.9c1.7-0.7,3.5-1.4,5.4-2.2c1.8-0.8,3.7-1.7,5.7-2.6
					c1-0.4,2-0.9,2.9-1.4c1-0.5,2-1,2.9-1.5c2-1,4-2,6.1-3.2c8.1-4.5,16.4-10,24.4-15.9c7.8-6.1,15.3-12.7,21.8-19.3
					c1.6-1.7,3.1-3.4,4.7-5c0.8-0.8,1.5-1.6,2.2-2.4c0.7-0.8,1.4-1.7,2.1-2.5c1.4-1.6,2.7-3.2,4-4.8c1.3-1.6,2.4-3.1,3.5-4.6
					c1.1-1.5,2.2-2.9,3.2-4.3c0.9-1.4,1.8-2.7,2.7-4c0.8-1.3,1.6-2.4,2.4-3.5c0.7-1.1,1.3-2.1,1.9-3.1c2.2-3.7,3.5-5.9,3.5-5.9
					c2.2,1.3,4.3,3.6,5.6,7.1c0.6,1.7,1.1,3.8,1.3,6.1c0.1,1.2,0.2,2.4,0.1,3.7c-0.1,1.3-0.2,2.7-0.5,4.1c-0.2,1.4-0.6,3-1,4.5
					c-0.2,0.8-0.4,1.6-0.7,2.4c-0.3,0.8-0.6,1.6-0.9,2.5c-0.7,1.7-1.4,3.4-2.3,5.2c-0.4,0.9-0.9,1.8-1.4,2.8
					c-0.5,0.9-1.1,1.8-1.7,2.8c-1.2,1.9-2.5,3.8-3.9,5.8c-1.5,1.9-3.1,3.9-4.9,5.9c-0.9,1-1.8,2-2.8,3c-1,1-2,1.9-3.1,2.9
					c-1.1,1-2.2,2-3.3,3c-0.6,0.5-1.1,1-1.7,1.5C549.6,268.7,549,269.1,548.4,269.6z"/>
			</g>
			<g id="XMLID_412_">
				
					<linearGradient id="XMLID_40_" gradientUnits="userSpaceOnUse" x1="533.5284" y1="246.534" x2="560.9274" y2="246.534" gradientTransform="matrix(0.7043 0.7099 -0.7099 0.7043 302.1386 -307.7588)">
					<stop  offset="0" style="stop-color:#00796D"/>
					<stop  offset="1" style="stop-color:#009D82"/>
				</linearGradient>
				<path id="XMLID_156_" class="st5" d="M517.9,236.3c-6.5,7.4-13.7,15.1-21.1,22.4c-0.9,0.9-1.8,1.9-2.8,2.8
					c-0.9,0.9-1.9,1.8-2.8,2.6c-1.9,1.8-3.7,3.6-5.6,5.2c-1.9,1.7-3.7,3.3-5.5,4.9c-1.9,1.5-3.7,3.1-5.4,4.5
					c-14.2,11.7-26.2,18.9-26,19.9c0,0,2.4-0.7,6.6-1.8c1-0.3,2.2-0.6,3.5-1c1.2-0.4,2.6-0.9,4-1.3c1.4-0.5,3-1,4.6-1.5
					c1.6-0.6,3.2-1.3,5-1.9c1.7-0.7,3.5-1.4,5.4-2.2c1.8-0.8,3.7-1.7,5.7-2.6c1-0.4,2-0.9,2.9-1.4c1-0.5,2-1,2.9-1.5
					c2-1,4-2,6.1-3.2c8.1-4.5,16.4-10,24.4-15.9c7.8-6.1,15.3-12.7,21.8-19.3c1.6-1.7,3.1-3.4,4.7-5c0.8-0.8,1.5-1.6,2.2-2.4
					c0.7-0.8,1.4-1.7,2.1-2.5c1.4-1.6,2.7-3.2,4-4.8c1.3-1.6,2.4-3.1,3.5-4.6c1.1-1.5,2.2-2.9,3.2-4.3c0.9-1.4,1.8-2.7,2.7-4
					c0.8-1.3,1.6-2.4,2.4-3.5c0.7-1.1,1.3-2.1,1.9-3.1c2.2-3.7,3.5-5.9,3.5-5.9c-2.2-1.3-5.3-1.8-8.9-1.4c-1.8,0.2-3.7,0.6-5.8,1.3
					c-1,0.3-2,0.8-3.1,1.2c-1.1,0.5-2.2,1-3.3,1.6c-1.1,0.6-2.3,1.3-3.4,2c-0.6,0.4-1.1,0.8-1.7,1.2c-0.6,0.4-1.2,0.8-1.8,1.2
					c-1.2,0.9-2.5,1.8-3.7,2.8c-1.2,1-2.5,2.1-3.9,3.3c-1.3,1.2-2.7,2.4-4,3.8c-1.4,1.3-2.9,2.7-4.3,4.2c-0.7,0.8-1.5,1.5-2.2,2.4
					c-0.8,0.8-1.6,1.6-2.3,2.4c-0.8,0.8-1.6,1.7-2.4,2.6c-0.4,0.5-0.8,0.9-1.2,1.4C518.8,235.4,518.3,235.9,517.9,236.3z"/>
			</g>
		</g>
		<g id="XMLID_406_">
			<g id="XMLID_409_">
				
					<linearGradient id="XMLID_41_" gradientUnits="userSpaceOnUse" x1="30.5803" y1="226.7194" x2="56.4285" y2="226.7194" gradientTransform="matrix(0.7802 -0.6255 0.6255 0.7802 -123.7361 93.8186)">
					<stop  offset="0" style="stop-color:#00BDA9"/>
					<stop  offset="0.1824" style="stop-color:#00AB8B"/>
					<stop  offset="1" style="stop-color:#009D82"/>
				</linearGradient>
				<path id="XMLID_155_" class="st6" d="M34.2,240.3c5.9,5.5,12.4,11.3,18.8,17c6.4,5.7,12.8,11.4,18.4,16.7
					c11.3,10.5,19.5,19,20.4,18.6c0,0-0.7-1.9-2-5.2c-0.6-1.6-1.4-3.6-2.4-5.9c-0.5-1.1-1-2.3-1.5-3.6c-0.6-1.2-1.2-2.6-1.8-3.9
					c-2.5-5.5-5.7-11.7-9.4-18.3c-3.8-6.5-8.1-13.3-12.7-19.8c-4.7-6.5-9.7-12.8-14.6-18.4c-5-5.6-9.8-10.7-14.2-14.8
					c-1.1-1-2.1-2-3.1-3c-1-0.9-2-1.8-2.9-2.6c-1.8-1.6-3.4-3-4.8-4.1c-2.7-2.2-4.2-3.5-4.2-3.5c-1.8,2.2-3.1,5.3-3.8,8.9
					c-0.7,3.6-0.6,7.6,0.3,12.1c1,4.4,2.8,9.1,6,14c0.8,1.2,1.6,2.5,2.6,3.7c0.9,1.3,1.9,2.6,3.1,3.9c0.6,0.7,1.1,1.3,1.8,2
					c0.6,0.7,1.2,1.4,1.8,2C31.3,237.5,32.7,238.8,34.2,240.3z"/>
			</g>
			<g id="XMLID_407_">
				
					<linearGradient id="XMLID_42_" gradientUnits="userSpaceOnUse" x1="43.8555" y1="226.542" x2="81.6928" y2="226.542" gradientTransform="matrix(0.7802 -0.6255 0.6255 0.7802 -123.7361 93.8186)">
					<stop  offset="0" style="stop-color:#00796D"/>
					<stop  offset="1" style="stop-color:#009D82"/>
				</linearGradient>
				<path id="XMLID_154_" class="st7" d="M72.8,209c5.4,8.3,9.8,17.9,13,27.4c3.2,9.5,5.3,19,6.3,27.3c2.2,16.7,0.5,28.5-0.3,28.8
					c0,0-0.7-1.9-2-5.2c-0.6-1.6-1.4-3.6-2.4-5.9c-0.5-1.1-1-2.3-1.5-3.6c-0.6-1.2-1.2-2.6-1.8-3.9c-2.5-5.5-5.7-11.7-9.4-18.3
					c-3.8-6.5-8.1-13.3-12.7-19.8c-4.7-6.5-9.7-12.8-14.6-18.4c-5-5.6-9.8-10.7-14.2-14.8c-1.1-1-2.1-2-3.1-3c-1-0.9-2-1.8-2.9-2.6
					c-1.8-1.6-3.4-3-4.8-4.1c-2.7-2.2-4.2-3.5-4.2-3.5c1.8-2.2,4.4-4.2,7.9-5.4c3.5-1.2,7.9-1.8,12.8-0.9c5,0.8,10.6,3,16.4,7.2
					c1.5,1,2.9,2.2,4.4,3.5c1.5,1.3,2.9,2.7,4.4,4.3c0.7,0.8,1.5,1.6,2.2,2.4c0.7,0.9,1.4,1.7,2.1,2.7C70,204.9,71.5,206.9,72.8,209
					z"/>
			</g>
		</g>
		<g id="XMLID_400_">
			<g id="XMLID_402_">
				<path id="XMLID_153_" class="st8" d="M550.6,180.3C550.1,181,550.6,180.3,550.6,180.3L550.6,180.3z"/>
				
					<linearGradient id="XMLID_44_" gradientUnits="userSpaceOnUse" x1="524.4641" y1="186.1602" x2="581.1782" y2="186.1602" gradientTransform="matrix(0.9769 0.2138 -0.2138 0.9769 51.551 -113.4773)">
					<stop  offset="0" style="stop-color:#00BDA9"/>
					<stop  offset="0.1824" style="stop-color:#00AB8B"/>
					<stop  offset="1" style="stop-color:#009D82"/>
				</linearGradient>
				<path id="XMLID_152_" class="st9" d="M578.4,192.7c-1-2.5-3.4-3.4-5.6-4c-2.2-0.6-4.2-0.9-4.2-2.7c0-0.9,0.9-1.6,2.3-2.3
					c1.3-0.7,3.1-1.3,4.8-1.9c0.9-0.3,1.7-0.7,2.5-1c0.8-0.4,1.6-0.7,2.2-1.2c1.3-0.9,2-1.9,1.9-3.4c-0.3-4.2-2.7-5.5-5.3-6.4
					c-2.5-0.9-5.1-1.4-5.2-4.3c0-0.8,2.7-3.9,4.9-7.3c2.3-3.4,4-7.1,1.5-9.3c-2.7-2.3-6.3-0.5-9.7,1.8c-3.3,2.5-6.5,5.4-8.5,5.3
					c-0.9-0.1-2.3-2.5-4.2-4.3c-1.9-1.8-4.3-2.8-7.4-0.1c-2.8,2.4-3.3,6.6-3.6,10.1c-0.3,3.5-0.2,6.4-2,6.6
					c-1.1,0.1-1.8-2.5-2.9-5.2c-1.2-2.6-2.8-5.2-5.8-4.7c-2.1,0.3-4.7,2.7-6,6.3c-1.3,3.6-1.4,8.4,1.4,13.6c2.6,5,2.6,7.8-1.7,6.4
					c-2.8-1-6,1.6-5.5,5.2c0.6,3.8,4,5.5,3.2,7.2c-1.1,2.4-3.5-1-5.3,1.5c-1.2,1.7-0.2,4.4,1.1,7.1c1.4,2.7,3.1,5.5,3.8,7.8
					c0.3,0.9,0.8,2.5,0.9,4.3c0.2,1.9-0.1,4.1-1.2,6.2c0.4-0.5,0.8-1.5,1.4-2.6c0.6-1.1,1.2-2.4,1.9-3.7c0.6-1.3,1.3-2.6,1.8-3.7
					c0.6-1.1,1-2,1.3-2.5c-0.8-2-1.8-3.9-3.1-5.6c-0.2-0.3,0.3-0.7,0.5-0.4c1.2,1.7,2.1,3.4,2.9,5.3c0.7-1.2,1.3-2.3,1.9-3.4
					c0.6-1.1,1.3-2.1,2-3.3c0,0,0-0.1-0.1-0.1c-0.6-1.5-4.4-8.4-5.4-10.1c-0.4-0.7,0.7-1.4,1.1-0.7c0.2,0.4,1.3,2.1,2.5,4
					c1.2,1.9,2.4,4,2.9,5.1c1.6-2.7,2.9-4.8,4.5-7.5c-0.9-2.5-2.4-7.2-3.8-11.6c-1.4-4.4-2.5-8.4-2.8-9.2c-0.3-0.8,0.9-1.4,1.2-0.7
					c0.8,2.1,2.1,6.5,3.6,10.6c1.4,4.1,2.7,7.8,3.1,8.9c1-1.5,1.9-3.1,2.9-4.7c0.9-1.5,1.7-2.8,2.5-4c0.8-1.3,1.7-2.5,2.6-4
					c0-2,0-6.1,0-10.1c0-3.9,0.2-7.5,0.2-8.4c0-0.8,1.2-1.1,1.3-0.2c0.1,1.7,0,5.4,0.1,8.8c0.1,3.4,0.2,6.6,0.2,7.5
					c5-7.1,10.7-13.8,16.8-20c0.6-0.6,1.5,0.2,0.9,0.8l-2.4,2.4l-2.3,2.5c1.1,0,2.3-0.1,3.4-0.3c0.4-0.1,0.4,0.6,0,0.6
					c-1.3,0.3-3,0.7-4.3,0.6c-0.8,0.9-1.6,1.8-2.3,2.6c-0.7,0.8-1.3,1.6-1.9,2.3c-1.2,1.5-2.3,2.8-3.4,4.2c-1,1.4-2.1,2.8-3.2,4.4
					c-0.6,0.8-1.2,1.6-1.8,2.5c-0.6,0.9-1.2,1.9-1.9,2.9c1.8-0.7,4.8-1.5,7.6-2c2.8-0.5,5.3-0.9,6-1c0.8-0.2,0.7,0.4,0,0.6
					c-2.9,0.7-5.2,1.3-7.4,2c-2.2,0.7-4.5,1.5-7.3,2.7c-0.1,0-0.2,0.1-0.2,0.1c-0.6,0.9-1.8,2.8-3,4.6c-1.2,1.9-2.4,3.8-2.9,4.7
					c1.5-0.2,5.8-0.5,10-0.6c2.1-0.1,4.2-0.1,5.9-0.1c1.8,0,3.3,0,4.1,0.1c0.8,0,0.6,1.2-0.1,1.2c-0.6,0-4.4,0-8.7,0.3
					c-2.2,0.1-4.5,0.3-6.6,0.4c-2.1,0.2-4,0.4-5.3,0.5c-0.1,0-0.2,0-0.3,0c-0.9,1.5-1.8,2.9-2.7,4.3c-0.8,1.4-1.7,2.8-2.6,4.4
					c1.7-0.3,8.6-0.7,9.9-0.7c0.8,0,0.7,1.2,0,1.3c-3.5,0.2-7.3,0.5-10.8,1.3c0,0-0.1,0-0.1,0c-1,1.7-1.8,3.1-2.8,4.9l5.1-1.5
					c0.4-0.1,0.5,0.5,0.2,0.6c0,0-1.4,0.4-2.8,0.8c-1.4,0.4-2.8,0.9-2.8,0.9c-1,1.7-2.3,4.4-3.7,7c-0.3,0.5-0.9,1.4-1.4,2.3
					c-0.6,0.9-1.1,1.8-1.4,2.3l1.7,0c1.1-2,2.9-3.4,4.8-4.4c1.9-1,4-1.6,6.1-2c4.1-0.8,7.9-0.9,9.1-2.1c1.3-1.3,0.2-3-0.6-4.4
					c-0.8-1.4-1.3-2.4,1.4-2.2c2.2,0.2,5.1,0.2,7.5-0.1c2.5-0.3,4.4-1.1,4.7-2.8c0.4-2.1-4.5-3.9-2.2-5.2c0.3-0.2,2-0.3,4.4-0.4
					c2.3-0.1,5.2-0.3,8-0.7c2.8-0.4,5.3-1.1,6.9-2.2C578.7,197.1,579.4,195.4,578.4,192.7z"/>
				<path id="XMLID_151_" class="st8" d="M562.6,194.4c-0.8,0-2.3-0.1-4.1-0.1c-1.8,0-3.8,0-5.9,0.1c-4.2,0.1-8.4,0.4-10,0.6
					c0.5-0.9,1.7-2.8,2.9-4.7c1.2-1.9,2.4-3.8,3-4.6c0.1,0,0.2,0,0.2-0.1c2.8-1.2,5.1-2,7.3-2.7c2.3-0.7,4.6-1.2,7.4-2
					c0.2-0.1,2.5-0.5,4.8-0.9c2.3-0.4,4.5-0.8,4.4-1c0-0.1-2.2,0.1-4.5,0.5c-1.1,0.2-2.3,0.4-3.2,0.5c-0.9,0.2-1.5,0.3-1.6,0.3
					c-0.8,0.2-3.2,0.5-6,1c-2.8,0.5-5.8,1.2-7.6,2c0.7-1,1.3-2,1.9-2.9c0.6-0.9,1.2-1.7,1.8-2.5c1.1-1.6,2.2-3,3.2-4.4
					c1.1-1.4,2.2-2.7,3.4-4.2c0.6-0.7,1.3-1.5,1.9-2.3c0.7-0.8,1.5-1.7,2.3-2.6c1.3,0,3-0.4,4.3-0.6c0.2-0.1,3.2-1,3.2-1.1
					c0-0.2-3,0.4-3.2,0.5c-1.1,0.2-2.2,0.3-3.4,0.3l2.3-2.5l2.4-2.4c0.2-0.2,1.6-1.7,2.9-3.3c1.4-1.5,2.7-3,2.6-3.2
					c-0.1-0.1-1.7,1.2-3.2,2.6c-1.5,1.4-3,2.9-3.2,3.1c-6.1,6.2-11.8,12.8-16.8,20c0-0.9-0.1-4.1-0.2-7.5c0-3.4,0-7.1-0.1-8.8
					c0-0.2-0.1-2-0.2-3.8c-0.1-1.8-0.2-3.5-0.3-3.5c-0.2,0-0.4,1.8-0.6,3.6c-0.1,1.8-0.2,3.7-0.2,4c0,0.8-0.1,4.5-0.2,8.4
					c0,4,0,8.1,0,10.1c0,0-0.5,0.7,0,0c-1,1.4-1.8,2.7-2.6,4c-0.8,1.3-1.7,2.5-2.5,4c-0.9,1.6-1.9,3.1-2.9,4.7
					c-0.4-1-1.7-4.8-3.1-8.9c-1.5-4.1-2.8-8.5-3.6-10.6c-0.1-0.3-2.7-8-3-7.9c-0.4,0.2,1.6,8.2,1.8,8.6c0.3,0.8,1.4,4.8,2.8,9.2
					c1.4,4.4,3,9.1,3.8,11.6c-1.6,2.7-3,4.8-4.5,7.5c-0.4-1.1-1.7-3.2-2.9-5.1c-1.2-1.9-2.3-3.6-2.5-4c-0.2-0.3-3.4-5-3.6-4.8
					c-0.3,0.2,2.3,5.2,2.5,5.5c0.9,1.7,4.8,8.7,5.4,10.1c0,0,0,0.1,0.1,0.1c-0.7,1.2-1.3,2.2-2,3.3c-0.6,1.1-1.2,2.2-1.9,3.4
					c-0.8-1.9-1.8-3.7-2.9-5.3c-0.1-0.2-2.3-3.2-2.4-3.1c-0.2,0.1,1.8,3.3,1.9,3.5c1.2,1.8,2.2,3.6,3.1,5.6
					c-0.7,1-6.7,11.9-11.7,23.4c-1.3,2.9-2.4,5.8-3.5,8.5c-1.1,2.8-2,5.4-2.9,7.7c-1.6,4.6-2.7,7.9-3,8.5c-0.1,0.2,2.4,0.6,2.4,0.6
					s0.9-2.9,2.2-7.4c0.7-2.2,1.6-4.8,2.5-7.5c1-2.7,2.1-5.7,3.2-8.6c4.6-11.6,10.6-22.9,11.2-23.7c0,0,1.4-0.4,2.8-0.9
					c1.4-0.4,2.8-0.8,2.8-0.8c0.2-0.1,3.3-1,3.2-1.2c-0.1-0.2-3.2,0.5-3.4,0.6l-5,1.5c1-1.8,1.8-3.2,2.8-4.9c0,0,0.1,0,0.1,0
					c3.5-0.8,7.4-1.1,10.8-1.3c0.3-0.1,6.8-0.4,6.8-0.6c0.1-0.3-6.3-0.6-6.8-0.6c-1.3,0-8.1,0.4-9.9,0.7c0.9-1.5,1.8-3,2.6-4.4
					c0.9-1.4,1.7-2.8,2.7-4.3c0.1,0,0.2,0.1,0.3,0c1.3-0.2,3.2-0.4,5.3-0.5c2.1-0.2,4.4-0.3,6.6-0.4c4.3-0.3,8.1-0.3,8.7-0.3
					c0.2,0,2.4,0,4.5-0.1c2.1-0.1,4.2-0.1,4.2-0.3C571.2,195,563,194.4,562.6,194.4z"/>
			</g>
			<path id="XMLID_150_" class="st8" d="M548.5,185.7c-4,5.9-7.8,12.1-13.5,22.9c-0.7,1.4-1.4,2.8-2.2,4.3c-0.4,0.8-0.8,1.5-1.2,2.3
				c-0.4,0.8-0.8,1.6-1.2,2.5c-0.8,1.7-1.6,3.5-2.5,5.3c-0.8,1.9-1.7,3.9-2.6,6c-3.6,8.4-7.6,18.7-11.4,31.7l-3.6-1c0,0,0.4-1.1,1-3
				c0.6-1.9,1.5-4.7,2.7-8c2.3-6.6,5.9-15.4,10.3-24.1c4.3-8.8,9.4-17.5,14-24.5C542.8,193.2,546.8,187.9,548.5,185.7z"/>
		</g>
		<g id="XMLID_394_">
			<g id="XMLID_396_">
				<path id="XMLID_149_" class="st8" d="M51.8,135.4C52.2,136.3,51.8,135.4,51.8,135.4L51.8,135.4z"/>
				
					<linearGradient id="XMLID_45_" gradientUnits="userSpaceOnUse" x1="20.3487" y1="140.6164" x2="92.2637" y2="140.6164" gradientTransform="matrix(0.9969 -7.810000e-002 7.810000e-002 0.9969 -13.0386 4.8952)">
					<stop  offset="0" style="stop-color:#00BDA9"/>
					<stop  offset="0.1824" style="stop-color:#00AB8B"/>
					<stop  offset="1" style="stop-color:#009D82"/>
				</linearGradient>
				<path id="XMLID_148_" class="st10" d="M83.3,114.3c-6.7-1.5-9.6,8.7-13.3,6.2c-1.8-1.2-0.8-5.8-0.3-10.5
					c0.6-4.7,0.5-9.5-2.8-10.9c-4.9-2-7.6,0.3-9.9,2.7c-2.3,2.4-4.3,4.9-7.6,3.7c-0.9-0.3-3-4.7-5.8-8.6c-2.9-3.8-6.4-6.9-9.9-4.8
					c-3.8,2.3-3.4,6.7-2.3,11.1c1,4.4,2.7,8.7,1.4,10.7c-1.2,1.8-13.4,1.9-11.4,9.9c0.9,3.5,4.7,5.7,8.1,7.5c3.4,1.8,6.3,3.2,5.2,5
					c-0.6,1.1-3.8,0.4-7.1,0.3c-3.4-0.1-7,0.3-8.7,3.2c-2.4,4.1,1.8,12.6,15.4,13.7c6.6,0.6,9.3,2.4,4.5,5.1
					c-3.2,1.8-3.8,5.9-0.1,7.6c3.8,1.9,8.1,0.4,8.9,2.2c1,2.5-4,2.2-3.4,5.2c0.7,4,11.8,4.7,16.4,7.3c1.8,1,7,3.7,7.7,9
					c0-1.4-0.7-4.6-1.5-7.8c-0.8-3.1-1.6-6.2-1.9-7.5c-2.4-1-4.9-1.6-7.4-2c-0.5-0.1-0.3-0.8,0.2-0.7c2.4,0.3,4.7,1,7,1.9
					c-0.7-3-1.3-5.4-2.1-8.4c-0.1,0-0.1,0-0.2,0c-1.8-0.7-11.1-2.5-13.4-2.8c-0.9-0.1-0.6-1.5,0.3-1.4c1.1,0.1,9.9,1,12.7,2
					c-0.9-3.4-1.8-6.1-2.9-9.4c-2.9-1-8.7-2.7-13.9-4.2c-5.2-1.4-9.9-2.6-10.8-2.7c-0.9-0.2-0.7-1.6,0.3-1.4
					c2.6,0.4,7.9,1.6,12.8,2.9c4.9,1.3,9.6,2.6,10.8,3c-0.7-1.9-1.4-3.8-2.2-5.8c-1.4-3.6-2.6-6.3-4-9.9c-2-1.2-6.3-3.5-10.2-5.5
					c-4-2-7.7-3.8-8.5-4.1c-0.9-0.3-0.3-1.7,0.6-1.3c1.8,0.7,5.6,2.4,9.2,4.1c3.5,1.7,6.9,3.4,7.8,3.9c-3.6-9-7.4-18-11.1-27
					c-0.4-0.9,1-1.5,1.4-0.6c1,2.3,2,4.7,2.9,7c0.6-1.2,1.1-2.4,1.5-3.8c0.1-0.5,0.8-0.2,0.7,0.3c-0.4,1.5-1,3.5-1.7,4.9
					c4.2,10.3,6,14.5,10.2,24.8c1.2-4.3,5.7-13.7,6.3-15.6c0.3-0.9,0.9-0.5,0.6,0.4c-1.1,3.5-2.1,6.1-2.9,8.8
					c-0.9,2.7-1.7,5.4-2.5,8.9c0,0.1-0.1,0.2-0.1,0.3c0.9,2.2,3.5,9.5,4.3,11.7c1.1-1.5,4.2-5.6,7.3-9.7c3.1-4.2,6.2-8.3,7.4-10
					c0.6-0.8,1.7,0.3,1.2,1c-0.4,0.6-3.2,4.5-6.2,8.9c-1.5,2.2-3.2,4.5-4.7,6.5c-1.5,2.1-2.9,3.9-3.8,5.2c-0.1,0.1-0.2,0.2-0.3,0.2
					c0.6,1.9,1.2,3.7,1.7,5.5c0.5,1.8,1,3.6,1.5,5.6c1.2-1.7,6.9-7.9,7.9-9.2c0.6-0.7,1.7,0.3,1.1,1.1c-2.8,3.2-5.9,6.8-8.3,10.3
					c0,0-0.1,0.1-0.1,0.1c0.5,2.2,0.9,4,1.5,6.3l3.4-5.3c0.3-0.4,0.9,0,0.6,0.4l-3.8,6c0.5,2.2,1.3,5.4,2,8.8c0.3,1.3,0.4,4.7,0.6,6
					l1.7-1.2c-0.6-5.2,2.4-9.9,5.6-13.9c3.1-4,6.5-7.3,6.6-9.5c0.2-4.8-10.1-2.1-5.1-6.5c4.1-3.6,10.2-10.4,7.5-13.9
					c-1.8-2.2-7.2,1.1-6.8-2.1c0.1-0.9,5-7.1,8-13.6c1.5-3.3,2.5-6.6,2.3-9.4C88.3,117.3,86.8,115.1,83.3,114.3z"/>
				<path id="XMLID_147_" class="st8" d="M74.6,132.8c-1.2,1.6-4.3,5.8-7.4,10c-3.1,4.1-6.1,8.2-7.3,9.7c-0.8-2.3-3.4-9.5-4.3-11.7
					c0.1-0.1,0.1-0.2,0.1-0.3c0.9-3.5,1.7-6.2,2.5-8.9c0.8-2.7,1.8-5.3,2.9-8.8c0.2-0.5,4-11,3.6-11.1c-0.3,0-4,10.3-4.2,10.7
					c-0.6,1.8-5.1,11.2-6.3,15.6c-4.2-10.3-6-14.5-10.2-24.8c0.8-1.4,1.3-3.4,1.7-4.9c0.1-0.2,0.6-3.9,0.4-4c-0.2-0.1-1,3.4-1.1,3.7
					c-0.4,1.3-0.9,2.6-1.5,3.8c-0.9-2.3-1.9-4.7-2.9-7c-0.1-0.2-1.2-2.4-2.2-4.5c-1.1-2.1-2.2-4-2.4-4c-0.2,0.1,0.6,2.2,1.5,4.4
					c0.8,2.2,1.7,4.4,1.8,4.6c3.7,9,7.5,18,11.1,27c-0.9-0.5-4.2-2.2-7.8-3.9c-3.6-1.7-7.4-3.4-9.2-4.1c-0.4-0.2-7.8-2.9-8-2.5
					c-0.1,0.2,1.6,1.1,3.5,2c1.8,0.9,3.7,1.8,3.9,1.9c0.9,0.3,4.6,2.1,8.5,4.1c3.9,2,8.2,4.4,10.2,5.5c0,0,0.4,0.9,0,0
					c1.4,3.6,2.6,6.3,4,9.9c0.8,1.9,1.5,3.8,2.2,5.8c-1.2-0.4-5.8-1.7-10.8-3c-4.9-1.3-10.3-2.4-12.8-2.9c-0.4-0.1-9.6-1.6-9.7-1.3
					c-0.1,0.3,9,2.6,9.5,2.7c0.9,0.2,5.7,1.3,10.8,2.7c5.2,1.4,10.9,3.2,13.9,4.2c1.1,3.4,2,6,2.9,9.4c-2.8-1-11.6-1.8-12.7-2
					c-0.5-0.1-7.3-0.5-7.3-0.1c-0.1,0.3,6.5,1.4,7,1.5c2.3,0.3,11.6,2.1,13.4,2.8c0.1,0,0.1,0,0.2,0c0.8,3,1.4,5.4,2.1,8.4
					c-2.3-0.9-4.6-1.5-7-1.9c-0.2,0-4.7-0.5-4.7-0.4c0,0.2,4.3,1,4.6,1.1c2.5,0.4,5,1,7.4,2c0.3,1.3,3.4,14.9,5.6,28.7
					c0.6,3.4,1,6.9,1.5,10.1c0.4,3.3,0.8,6.3,1.1,9c0.6,5.4,0.9,9.2,0.9,9.9c0,0.2,3.1-0.5,3.1-0.5s-0.5-3.4-1.1-8.6
					c-0.4-2.6-0.8-5.6-1.3-8.8c-0.6-3.2-1.1-6.7-1.7-10.2c-2.5-13.9-5.9-27.9-6.2-28.9l3.8-6c0.1-0.2,2.1-3.6,1.9-3.7
					c-0.2-0.1-2.4,3.1-2.6,3.3l-3.4,5.3c-0.5-2.2-0.9-4-1.5-6.3c0,0,0.1-0.1,0.1-0.1c2.4-3.5,5.5-7.1,8.3-10.3
					c0.3-0.3,5.3-6.5,5-6.7c-0.3-0.3-5.8,5.3-6.1,5.7c-1,1.2-6.7,7.5-7.9,9.2c-0.5-2-1-3.8-1.5-5.6c-0.5-1.8-1.1-3.6-1.7-5.5
					c0.1,0,0.2-0.1,0.3-0.2c1-1.3,2.3-3.2,3.8-5.2c1.5-2.1,3.1-4.4,4.7-6.5c3.1-4.4,5.8-8.3,6.2-8.9c0.3-0.4,6-9.1,5.7-9.4
					C81.2,124.1,74.9,132.4,74.6,132.8z"/>
			</g>
			<path id="XMLID_146_" class="st8" d="M55.7,140.7c2.6,7.6,5.8,15.3,9.8,28.5c3.9,13.3,9.1,32.2,12.8,62.5l-4.6,0.6
				c0,0-0.1-1.2-0.4-3.5c-0.2-2.2-0.5-5.4-1.1-9.2c-0.9-7.7-2.5-18.1-4.5-28.8c-2-10.7-4.5-21.8-6.8-30.9
				C58.6,150.9,56.6,143.7,55.7,140.7z"/>
		</g>
	</g>
	<g id="XMLID_234_">
		<g id="XMLID_145_" class="st11">
			<defs>
				<filter id="Adobe_OpacityMaskFilter" filterUnits="userSpaceOnUse" x="6.2" y="326.3" width="587.7" height="22.7">
					<feFlood  style="flood-color:white;flood-opacity:1" result="back"/>
					<feBlend  in="SourceGraphic" in2="back" mode="normal"/>
				</filter>
			</defs>
			<mask maskUnits="userSpaceOnUse" x="6.2" y="326.3" width="587.7" height="22.7" id="XMLID_46_">
				<g id="XMLID_162_" class="st12">
					
						<image style="overflow:visible;" width="592" height="28" id="XMLID_163_" xlink:href="E95FEB58.jpg"  transform="matrix(1 0 0 1 4 324)">
					</image>
				</g>
			</mask>
			<g id="XMLID_48_" class="st13">
				<path id="XMLID_181_" class="st14" d="M593.8,338.2c0,6.6-24.6,10.8-293.8,10.8C30.7,349,6.2,344.8,6.2,338.2
					c0-6.6,131.6-11.9,293.8-11.9C462.3,326.3,593.8,331.7,593.8,338.2z"/>
			</g>
		</g>
		<g id="XMLID_330_">
			<g id="XMLID_351_">
				<linearGradient id="XMLID_180_" gradientUnits="userSpaceOnUse" x1="300" y1="10.0037" x2="300" y2="371.9373">
					<stop  offset="0" style="stop-color:#EEF0F1"/>
					<stop  offset="1" style="stop-color:#B5B8BA"/>
				</linearGradient>
				<path id="XMLID_144_" class="st15" d="M518.7,307H81.3c-5.2,0-9.4-4.2-9.4-9.4V10.4c0-5.2,4.2-9.4,9.4-9.4h437.4
					c5.2,0,9.4,4.2,9.4,9.4v287.2C528.1,302.8,523.9,307,518.7,307z"/>
				<path id="XMLID_143_" class="st16" d="M87.6,282.6V25.4c0-5.1,4.2-9.3,9.3-9.3h406.1c5.1,0,9.3,4.2,9.3,9.3v257.2
					c0,5.1-4.2,9.3-9.3,9.3H96.9C91.8,291.9,87.6,287.7,87.6,282.6z"/>
				<linearGradient id="XMLID_182_" gradientUnits="userSpaceOnUse" x1="300.0008" y1="211.048" x2="300.0008" y2="-53.1672">
					<stop  offset="3.861790e-002" style="stop-color:#50BCEB"/>
					<stop  offset="1" style="stop-color:#C4E6F7"/>
				</linearGradient>
				<path id="XMLID_2_" class="st17" d="M90.3,282.6V25.4c0-3.7,3-6.6,6.6-6.6H503c3.7,0,6.6,3,6.6,6.6v257.2c0,3.7-3,6.6-6.6,6.6
					H96.9C93.3,289.2,90.3,286.2,90.3,282.6z"/>
				<path id="XMLID_142_" class="st18" d="M300,7.3L300,7.3c-1.3,0-2.3,1-2.3,2.3l0,0c0,1.3,1,2.3,2.3,2.3l0,0c1.3,0,2.3-1,2.3-2.3
					l0,0C302.3,8.4,301.3,7.3,300,7.3z"/>
				<g id="XMLID_354_">
					<g id="XMLID_377_">
						<g id="XMLID_381_">
							<linearGradient id="XMLID_183_" gradientUnits="userSpaceOnUse" x1="300" y1="335.283" x2="300" y2="285.4713">
								<stop  offset="0" style="stop-color:#EEF0F1"/>
								<stop  offset="1" style="stop-color:#B5B8BA"/>
							</linearGradient>
							<path id="XMLID_141_" class="st19" d="M52.1,305.9h495.9v22.1c0,5.6-4.6,10.2-10.2,10.2H62.3c-5.6,0-10.2-4.6-10.2-10.2
								V305.9z"/>
						</g>
						<g id="XMLID_379_">
							<linearGradient id="XMLID_188_" gradientUnits="userSpaceOnUse" x1="300" y1="353.3254" x2="300" y2="310.7897">
								<stop  offset="0" style="stop-color:#EEF0F1"/>
								<stop  offset="1" style="stop-color:#B5B8BA"/>
							</linearGradient>
							<path id="XMLID_140_" class="st20" d="M52.1,315.7v12.4c0,5.6,4.6,10.2,10.2,10.2h475.5c5.6,0,10.2-4.6,10.2-10.2v-12.4H52.1
								z"/>
						</g>
						<path id="XMLID_139_" class="st21" d="M264.9,305.9h70.2v3.7c0,1.8-1.4,3.2-3.2,3.2h-63.8c-1.8,0-3.2-1.4-3.2-3.2V305.9z"/>
					</g>
					<g id="XMLID_355_">
						<g id="XMLID_359_">
							<g id="XMLID_368_">
								<path id="XMLID_138_" class="st22" d="M100.8,305.9V302c0-1.8-1.4-3.2-3.2-3.2H79.4c-1.8,0-3.2,1.4-3.2,3.2v3.9H100.8z"/>
								<path id="XMLID_137_" class="st22" d="M131.7,305.9V302c0-1.8-1.4-3.2-3.2-3.2h-18.1c-1.8,0-3.2,1.4-3.2,3.2v3.9H131.7z"/>
								<path id="XMLID_136_" class="st22" d="M162.7,305.9V302c0-1.8-1.4-3.2-3.2-3.2h-18.1c-1.8,0-3.2,1.4-3.2,3.2v3.9H162.7z"/>
								<path id="XMLID_135_" class="st22" d="M193.6,305.9V302c0-1.8-1.4-3.2-3.2-3.2h-18.1c-1.8,0-3.2,1.4-3.2,3.2v3.9H193.6z"/>
								<path id="XMLID_134_" class="st22" d="M364.4,305.9V302c0-1.8-1.4-3.2-3.2-3.2H203.3c-1.8,0-3.2,1.4-3.2,3.2v3.9H364.4z"/>
								<path id="XMLID_133_" class="st22" d="M395.4,305.9V302c0-1.8-1.4-3.2-3.2-3.2h-18.1c-1.8,0-3.2,1.4-3.2,3.2v3.9H395.4z"/>
								<path id="XMLID_132_" class="st22" d="M427.6,305.9V302c0-1.8-1.4-3.2-3.2-3.2h-18.1c-1.8,0-3.2,1.4-3.2,3.2v3.9H427.6z"/>
								<path id="XMLID_131_" class="st22" d="M459.7,305.9V302c0-1.8-1.4-3.2-3.2-3.2h-18.1c-1.8,0-3.2,1.4-3.2,3.2v3.9H459.7z"/>
							</g>
							<path id="XMLID_130_" class="st23" d="M100.8,302.3V302c0-1.8-1.4-3.2-3.2-3.2H79.4c-1.8,0-3.2,1.4-3.2,3.2v0.3H100.8z"/>
							<path id="XMLID_129_" class="st23" d="M131.7,302.3V302c0-1.8-1.4-3.2-3.2-3.2h-18.1c-1.8,0-3.2,1.4-3.2,3.2v0.3H131.7z"/>
							<path id="XMLID_128_" class="st23" d="M162.7,302.3V302c0-1.8-1.4-3.2-3.2-3.2h-18.1c-1.8,0-3.2,1.4-3.2,3.2v0.3H162.7z"/>
							<path id="XMLID_127_" class="st23" d="M193.6,302.3V302c0-1.8-1.4-3.2-3.2-3.2h-18.1c-1.8,0-3.2,1.4-3.2,3.2v0.3H193.6z"/>
							<path id="XMLID_126_" class="st23" d="M364.4,302.3V302c0-1.8-1.4-3.2-3.2-3.2H203.3c-1.8,0-3.2,1.4-3.2,3.2v0.3H364.4z"/>
							<path id="XMLID_125_" class="st23" d="M395.4,302.3V302c0-1.8-1.4-3.2-3.2-3.2h-18.1c-1.8,0-3.2,1.4-3.2,3.2v0.3H395.4z"/>
							<path id="XMLID_124_" class="st23" d="M427.6,302.3V302c0-1.8-1.4-3.2-3.2-3.2h-18.1c-1.8,0-3.2,1.4-3.2,3.2v0.3H427.6z"/>
							<path id="XMLID_123_" class="st23" d="M459.7,302.3V302c0-1.8-1.4-3.2-3.2-3.2h-18.1c-1.8,0-3.2,1.4-3.2,3.2v0.3H459.7z"/>
						</g>
						<g id="XMLID_356_">
							<rect id="XMLID_122_" x="467.3" y="302.3" class="st24" width="56.7" height="3.7"/>
							<path id="XMLID_121_" class="st23" d="M520.8,298.8h-50.2c-1.8,0-3.2,1.4-3.2,3.2v0.3H524V302
								C524,300.2,522.6,298.8,520.8,298.8z"/>
						</g>
					</g>
				</g>
				<g id="XMLID_352_">
					<defs>
						<path id="XMLID_1_" d="M90.3,282.6V25.4c0-3.7,3-6.6,6.6-6.6H503c3.7,0,6.6,3,6.6,6.6v257.2c0,3.7-3,6.6-6.6,6.6H96.9
							C93.3,289.2,90.3,286.2,90.3,282.6z"/>
					</defs>
					<clipPath id="XMLID_189_">
						<use xlink:href="#XMLID_1_"  style="overflow:visible;"/>
					</clipPath>
				</g>
			</g>
			<g id="XMLID_331_">
				<g id="XMLID_347_">
					<g id="XMLID_348_">
						<g id="XMLID_349_">
							<linearGradient id="XMLID_190_" gradientUnits="userSpaceOnUse" x1="297.9905" y1="303.0644" x2="297.9905" y2="160.7786">
								<stop  offset="3.861790e-002" style="stop-color:#50BCEB"/>
								<stop  offset="1" style="stop-color:#C4E6F7"/>
							</linearGradient>
							<polygon id="XMLID_120_" class="st25" points="496.4,278.9 99.6,278.9 99.6,25.5 101.8,25.5 101.8,276.7 494.2,276.7 
								494.2,25.5 496.4,25.5 							"/>
						</g>
					</g>
				</g>
				<g id="XMLID_332_">
					<g id="XMLID_345_">
						<linearGradient id="XMLID_192_" gradientUnits="userSpaceOnUse" x1="297.9904" y1="303.0459" x2="297.9904" y2="160.7699">
							<stop  offset="3.861790e-002" style="stop-color:#50BCEB"/>
							<stop  offset="1" style="stop-color:#C4E6F7"/>
						</linearGradient>
						<rect id="XMLID_119_" x="101.8" y="36.3" class="st26" width="392.4" height="0.7"/>
					</g>
					<g id="XMLID_343_">
						<linearGradient id="XMLID_193_" gradientUnits="userSpaceOnUse" x1="297.9904" y1="303.0482" x2="297.9904" y2="160.7723">
							<stop  offset="3.861790e-002" style="stop-color:#50BCEB"/>
							<stop  offset="1" style="stop-color:#C4E6F7"/>
						</linearGradient>
						<rect id="XMLID_118_" x="101.8" y="70.6" class="st27" width="392.4" height="0.7"/>
					</g>
					<g id="XMLID_341_">
						<linearGradient id="XMLID_195_" gradientUnits="userSpaceOnUse" x1="297.9904" y1="303.0507" x2="297.9904" y2="160.7747">
							<stop  offset="3.861790e-002" style="stop-color:#50BCEB"/>
							<stop  offset="1" style="stop-color:#C4E6F7"/>
						</linearGradient>
						<rect id="XMLID_117_" x="101.8" y="105" class="st28" width="392.4" height="0.7"/>
					</g>
					<g id="XMLID_339_">
						<linearGradient id="XMLID_196_" gradientUnits="userSpaceOnUse" x1="297.9904" y1="303.053" x2="297.9904" y2="160.7771">
							<stop  offset="3.861790e-002" style="stop-color:#50BCEB"/>
							<stop  offset="1" style="stop-color:#C4E6F7"/>
						</linearGradient>
						<rect id="XMLID_116_" x="101.8" y="139.3" class="st29" width="392.4" height="0.7"/>
					</g>
					<g id="XMLID_337_">
						<linearGradient id="XMLID_199_" gradientUnits="userSpaceOnUse" x1="297.9904" y1="303.075" x2="297.9904" y2="160.7774">
							<stop  offset="3.861790e-002" style="stop-color:#50BCEB"/>
							<stop  offset="1" style="stop-color:#C4E6F7"/>
						</linearGradient>
						<rect id="XMLID_115_" x="101.8" y="173.6" class="st30" width="392.4" height="0.7"/>
					</g>
					<g id="XMLID_335_">
						<linearGradient id="XMLID_200_" gradientUnits="userSpaceOnUse" x1="297.9904" y1="303.0721" x2="297.9904" y2="160.7745">
							<stop  offset="3.861790e-002" style="stop-color:#50BCEB"/>
							<stop  offset="1" style="stop-color:#C4E6F7"/>
						</linearGradient>
						<rect id="XMLID_114_" x="101.8" y="208" class="st31" width="392.4" height="0.7"/>
					</g>
					<g id="XMLID_333_">
						<linearGradient id="XMLID_202_" gradientUnits="userSpaceOnUse" x1="297.9904" y1="303.0693" x2="297.9904" y2="160.7717">
							<stop  offset="3.861790e-002" style="stop-color:#50BCEB"/>
							<stop  offset="1" style="stop-color:#C4E6F7"/>
						</linearGradient>
						<rect id="XMLID_113_" x="101.8" y="242.3" class="st32" width="392.4" height="0.7"/>
					</g>
				</g>
			</g>
		</g>
		<g id="XMLID_235_">
			<g id="XMLID_328_">
				<rect id="XMLID_112_" x="107.2" y="98.4" class="st33" width="7.2" height="59.3"/>
			</g>
			<g id="XMLID_324_">
				<g id="XMLID_111_">
					<rect id="XMLID_164_" x="118.3" y="125" class="st34" width="7.2" height="28.7"/>
				</g>
			</g>
			<g id="XMLID_322_">
				<rect id="XMLID_110_" x="129.4" y="114.5" class="st35" width="7.2" height="36.3"/>
			</g>
			<g id="XMLID_320_">
				<rect id="XMLID_109_" x="140.4" y="133.7" class="st33" width="7.2" height="17.9"/>
			</g>
			<g id="XMLID_316_">
				<g id="XMLID_108_">
					<rect id="XMLID_165_" x="151.5" y="143.3" class="st34" width="7.2" height="17.9"/>
				</g>
			</g>
			<g id="XMLID_314_">
				<rect id="XMLID_107_" x="162.5" y="157.7" class="st35" width="7.2" height="17.9"/>
			</g>
			<g id="XMLID_312_">
				<rect id="XMLID_106_" x="173.6" y="161.2" class="st33" width="7.2" height="67"/>
			</g>
			<g id="XMLID_308_">
				<g id="XMLID_105_">
					<rect id="XMLID_166_" x="184.7" y="175.5" class="st34" width="7.2" height="81.7"/>
				</g>
			</g>
			<g id="XMLID_306_">
				<rect id="XMLID_104_" x="195.7" y="188.7" class="st35" width="7.2" height="17.9"/>
			</g>
			<g id="XMLID_304_">
				<rect id="XMLID_103_" x="206.8" y="178.2" class="st33" width="7.2" height="17.9"/>
			</g>
			<g id="XMLID_300_">
				<g id="XMLID_102_">
					<rect id="XMLID_167_" x="217.8" y="168.7" class="st34" width="7.2" height="17.9"/>
				</g>
			</g>
			<g id="XMLID_298_">
				<rect id="XMLID_101_" x="228.9" y="180.5" class="st35" width="7.2" height="17.9"/>
			</g>
			<g id="XMLID_296_">
				<rect id="XMLID_100_" x="240" y="155.3" class="st33" width="7.2" height="36.3"/>
			</g>
			<g id="XMLID_292_">
				<g id="XMLID_99_">
					<rect id="XMLID_168_" x="251" y="146.5" class="st34" width="7.2" height="17.9"/>
				</g>
			</g>
			<g id="XMLID_290_">
				<rect id="XMLID_98_" x="262.1" y="119.8" class="st35" width="7.2" height="37.9"/>
			</g>
			<g id="XMLID_288_">
				<rect id="XMLID_97_" x="273.1" y="106.5" class="st33" width="7.2" height="44"/>
			</g>
			<g id="XMLID_284_">
				<g id="XMLID_96_">
					<rect id="XMLID_169_" x="284.2" y="136.7" class="st34" width="7.2" height="17.9"/>
				</g>
			</g>
			<g id="XMLID_282_">
				<rect id="XMLID_95_" x="295.3" y="92.2" class="st35" width="7.2" height="53.6"/>
			</g>
			<g id="XMLID_280_">
				<rect id="XMLID_94_" x="306.3" y="138.2" class="st33" width="7.2" height="17.9"/>
			</g>
			<g id="XMLID_276_">
				<g id="XMLID_93_">
					<rect id="XMLID_170_" x="317.4" y="151.3" class="st34" width="7.2" height="17.9"/>
				</g>
			</g>
			<g id="XMLID_274_">
				<rect id="XMLID_92_" x="328.4" y="157.1" class="st35" width="7.2" height="37.8"/>
			</g>
			<g id="XMLID_272_">
				<rect id="XMLID_91_" x="339.5" y="185.9" class="st33" width="7.2" height="14.8"/>
			</g>
			<g id="XMLID_268_">
				<g id="XMLID_90_">
					<rect id="XMLID_171_" x="350.6" y="192.3" class="st34" width="7.2" height="17.9"/>
				</g>
			</g>
			<g id="XMLID_266_">
				<rect id="XMLID_89_" x="361.6" y="158.2" class="st35" width="7.2" height="52.1"/>
			</g>
			<g id="XMLID_264_">
				<rect id="XMLID_88_" x="372.7" y="168.6" class="st33" width="7.2" height="32"/>
			</g>
			<g id="XMLID_260_">
				<g id="XMLID_87_">
					<rect id="XMLID_172_" x="383.7" y="152.2" class="st34" width="7.2" height="74.7"/>
				</g>
			</g>
			<g id="XMLID_258_">
				<rect id="XMLID_86_" x="394.8" y="165.3" class="st35" width="7.2" height="17.9"/>
			</g>
			<g id="XMLID_256_">
				<rect id="XMLID_85_" x="405.9" y="159.9" class="st33" width="7.2" height="17.9"/>
			</g>
			<g id="XMLID_252_">
				<g id="XMLID_84_">
					<rect id="XMLID_173_" x="416.9" y="168.7" class="st34" width="7.2" height="70.2"/>
				</g>
			</g>
			<g id="XMLID_250_">
				<rect id="XMLID_83_" x="428" y="163.9" class="st35" width="7.2" height="54.7"/>
			</g>
			<g id="XMLID_248_">
				<rect id="XMLID_82_" x="439" y="160.1" class="st33" width="7.2" height="20.9"/>
			</g>
			<g id="XMLID_244_">
				<g id="XMLID_81_">
					<rect id="XMLID_176_" x="450.1" y="118.4" class="st34" width="7.2" height="53.2"/>
				</g>
			</g>
			<g id="XMLID_242_">
				<rect id="XMLID_80_" x="461.2" y="134.7" class="st35" width="7.2" height="17.9"/>
			</g>
			<g id="XMLID_240_">
				<rect id="XMLID_79_" x="472.2" y="129.9" class="st33" width="7.2" height="17.9"/>
			</g>
			<g id="XMLID_236_">
				<g id="XMLID_78_">
					<rect id="XMLID_177_" x="483.3" y="89" class="st34" width="7.2" height="54.6"/>
				</g>
			</g>
		</g>
	</g>
	<g id="XMLID_204_">
		<g id="XMLID_227_">
			
				<linearGradient id="XMLID_203_" gradientUnits="userSpaceOnUse" x1="-983.2106" y1="1110.1234" x2="-1004.3646" y2="1124.444" gradientTransform="matrix(0.1645 0.9864 -0.9864 0.1645 1440.095 1007.0373)">
				<stop  offset="0.2175" style="stop-color:#F7C3C1"/>
				<stop  offset="1" style="stop-color:#F3A396"/>
			</linearGradient>
			<path id="XMLID_77_" class="st36" d="M173.5,204.2c1.4,0.1,2.3,0.1,5,3c2.7,2.8,5.7,6.5,6.8,7.7c0.8,0.9-0.3,2-1.1,1.3
				c-1.8-1.6-4.8-4.1-4.8-4.1s-2.9,2.8-4.6,3.8c-0.6,0.4-1.8,0.6-3.3-1c-1.6-1.6-3.1-5.1-2.4-7.6C169.7,204.8,172,204,173.5,204.2z"
				/>
			
				<linearGradient id="XMLID_206_" gradientUnits="userSpaceOnUse" x1="-987.4684" y1="1111.8334" x2="-993.2258" y2="1114.7571" gradientTransform="matrix(0.1645 0.9864 -0.9864 0.1645 1440.095 1007.0373)">
				<stop  offset="0.2175" style="stop-color:#F7C3C1"/>
				<stop  offset="1" style="stop-color:#F3A396"/>
			</linearGradient>
			<path id="XMLID_76_" class="st37" d="M179.6,213.7c0.3-0.3,0.4-0.7-0.4-2.1c-0.8-1.4-2.3-2.6-2.8-2c-0.5,0.6-0.1,1.4,0.5,2.5
				C177.5,213.2,178.6,214.7,179.6,213.7z"/>
			
				<linearGradient id="XMLID_207_" gradientUnits="userSpaceOnUse" x1="-986.8052" y1="1113.4705" x2="-992.2132" y2="1116.2168" gradientTransform="matrix(0.1645 0.9864 -0.9864 0.1645 1440.095 1007.0373)">
				<stop  offset="0.2175" style="stop-color:#F7C3C1"/>
				<stop  offset="1" style="stop-color:#F3A396"/>
			</linearGradient>
			<path id="XMLID_75_" class="st38" d="M178.2,214.8c0.3-0.3,0.4-0.7-0.4-2.1c-0.8-1.4-1.9-2.4-2.4-1.8c-0.5,0.6-0.4,1.2,0.2,2.3
				C176.2,214.4,177.2,215.8,178.2,214.8z"/>
			
				<linearGradient id="XMLID_208_" gradientUnits="userSpaceOnUse" x1="-985.8705" y1="1114.9802" x2="-991.6278" y2="1117.9038" gradientTransform="matrix(0.1645 0.9864 -0.9864 0.1645 1440.095 1007.0373)">
				<stop  offset="0.2175" style="stop-color:#F7C3C1"/>
				<stop  offset="1" style="stop-color:#F3A396"/>
			</linearGradient>
			<path id="XMLID_74_" class="st39" d="M176.8,215.9c0.3-0.3,0.4-0.7-0.4-2.1c-0.8-1.4-2.3-2.6-2.8-2c-0.5,0.6-0.1,1.4,0.5,2.5
				C174.8,215.5,175.8,216.9,176.8,215.9z"/>
			
				<linearGradient id="XMLID_213_" gradientUnits="userSpaceOnUse" x1="-985.0595" y1="1116.5774" x2="-990.8168" y2="1119.5011" gradientTransform="matrix(0.1645 0.9864 -0.9864 0.1645 1440.095 1007.0373)">
				<stop  offset="0.2175" style="stop-color:#F7C3C1"/>
				<stop  offset="1" style="stop-color:#F3A396"/>
			</linearGradient>
			<path id="XMLID_73_" class="st40" d="M175.1,216.6c0.3-0.3,0.4-0.6-0.4-2s-2.1-2.4-2.6-1.8c-0.5,0.5-0.1,1.3,0.5,2.3
				C173.2,216.2,174.2,217.6,175.1,216.6z"/>
			
				<linearGradient id="XMLID_214_" gradientUnits="userSpaceOnUse" x1="-993.1254" y1="1115.4303" x2="-1004.0103" y2="1120.3781" gradientTransform="matrix(0.1645 0.9864 -0.9864 0.1645 1440.095 1007.0373)">
				<stop  offset="0.2175" style="stop-color:#F7C3C1"/>
				<stop  offset="1" style="stop-color:#F3A396"/>
			</linearGradient>
			<path id="XMLID_72_" class="st41" d="M180,207.8c0.5,0.7-2.7,3.5-4.2,5.5c-0.1,0.2-1-0.4-0.9-1.8c0.1-0.6,0.6-1.8,1.2-2.5
				c-3.4,2.2-7.6,0.3-7.1-1.8c0.7-2.4,3-3.3,4.5-3.1C174.9,204.3,177.4,204.6,180,207.8z"/>
		</g>
		<g id="XMLID_223_">
			<linearGradient id="XMLID_215_" gradientUnits="userSpaceOnUse" x1="101.8579" y1="233.7701" x2="101.9545" y2="218.2085">
				<stop  offset="0.2175" style="stop-color:#F7C3C1"/>
				<stop  offset="1" style="stop-color:#F3A396"/>
			</linearGradient>
			<path id="XMLID_71_" class="st42" d="M101.5,215.1c0,0,5.2,3.3,5.8,7.4c0.6,4.1,1.8,5.2,1,5.6c-1.1,0.6-2.9-1.3-3.1-2.5
				c-0.2-1.2-0.2,5.4-0.4,7.2c-0.1,1.7-0.4,4.1-1.8,3.2c-0.6-0.4-0.9-5.8-1.2-6.4c0,0-5-1.8-6.1-2.7c-1.1-0.9,0-4.8,0.6-6.6
				C96.9,218.4,100.3,214.7,101.5,215.1z"/>
			<linearGradient id="XMLID_216_" gradientUnits="userSpaceOnUse" x1="100.5852" y1="224.2443" x2="102.035" y2="214.4821">
				<stop  offset="0" style="stop-color:#F3A396;stop-opacity:0"/>
				<stop  offset="0.985" style="stop-color:#F3A396"/>
			</linearGradient>
			<path id="XMLID_70_" class="st43" d="M101.5,215.1c0,0,2.9,1.9,4.6,4.5c-1.7,1.6-7.8-0.7-9.9,0.5
				C96.9,218.4,100.3,214.7,101.5,215.1z"/>
			<linearGradient id="XMLID_217_" gradientUnits="userSpaceOnUse" x1="99.8867" y1="228.2574" x2="101.2398" y2="220.8149">
				<stop  offset="0" style="stop-color:#F3A396;stop-opacity:0"/>
				<stop  offset="0.985" style="stop-color:#F3A396"/>
			</linearGradient>
			<path id="XMLID_69_" class="st44" d="M98,225.2c0.7,0.2,1.2,1,2.5,1.1c1.6,0.1,1.6,0.6,2.8-0.1c1-0.5,1.1-3.4,1.8-4
				c-0.1,2.5,0,3.3,0,3.3c-0.2-0.8-0.2,1.8-0.3,4.2c-0.6-2.5-3-0.1-3.1-0.3c0,0-5-1.8-6.1-2.7c-0.4-0.4-0.5-1.2-0.4-2.2
				C95.9,225.8,96.5,224.7,98,225.2z"/>
		</g>
		<g id="XMLID_209_">
			<g id="XMLID_210_">
				<g id="XMLID_218_">
					<linearGradient id="XMLID_219_" gradientUnits="userSpaceOnUse" x1="130.2327" y1="301.946" x2="149.554" y2="301.946">
						<stop  offset="0.1524" style="stop-color:#221D24"/>
						<stop  offset="1" style="stop-color:#49484B"/>
					</linearGradient>
					<path id="XMLID_68_" class="st45" d="M139.8,297.8c0,0,10.4,4.8,9.7,7.2c-0.8,2.9-16.9,1.8-19.2-0.5c-0.4-0.4,0.4-5.8,0.9-5.9
						C131.7,298.5,136.4,296,139.8,297.8z"/>
					<linearGradient id="XMLID_220_" gradientUnits="userSpaceOnUse" x1="112.7873" y1="303.4821" x2="133.2734" y2="303.4821">
						<stop  offset="0.1524" style="stop-color:#221D24"/>
						<stop  offset="1" style="stop-color:#49484B"/>
					</linearGradient>
					<path id="XMLID_67_" class="st46" d="M122.2,298.6c0,0,12.7,6.6,10.9,8.4c-3.7,3.5-18.8,0-19.9-1c-0.7-0.7-0.2-5,0.3-6
						C114.2,298.6,121,298.2,122.2,298.6z"/>
					<linearGradient id="XMLID_221_" gradientUnits="userSpaceOnUse" x1="126.2138" y1="175.2231" x2="128.3402" y2="274.3917">
						<stop  offset="4.674800e-002" style="stop-color:#1C1D3B"/>
						<stop  offset="0.9092" style="stop-color:#273573"/>
					</linearGradient>
					<path id="XMLID_66_" class="st47" d="M124.1,299.2c-0.1,2.2-11,2.6-11,0.6c0-1.9,1.2-24.2,0.9-38.2
						c-0.3-18.1-0.9-42.5,0.6-56.6c4.1,0.2,23.5-0.2,28.1,0c0.2,2,0.9,29.8,0.5,50.3c-0.3,11.7-2.1,40-2.6,42.1s-10.7,2.7-10.6,0.9
						c0.1-1.8-0.3-22-0.1-35.2c0.2-11.2-0.9-31.4-1.2-31.1c-0.6,0.6-1.4,17.9-1.6,23.1C126.4,273.2,124.2,296.3,124.1,299.2z"/>
					<linearGradient id="XMLID_222_" gradientUnits="userSpaceOnUse" x1="128.5596" y1="200.8643" x2="127.5931" y2="258.471">
						<stop  offset="4.674800e-002" style="stop-color:#1C1D3B"/>
						<stop  offset="0.9092" style="stop-color:#273573"/>
					</linearGradient>
					<path id="XMLID_65_" class="st48" d="M113.7,220.2c0.1-5.7,0.4-10.9,0.9-15.1c4.1,0.2,23.5-0.2,28.1,0c0.1,0.7,0.2,4.1,0.3,9.1
						C137.1,212.6,116.8,214,113.7,220.2z"/>
				</g>
				<g id="XMLID_211_">
					<linearGradient id="XMLID_224_" gradientUnits="userSpaceOnUse" x1="143.1602" y1="169.7665" x2="181.8346" y2="217.046">
						<stop  offset="4.336450e-002" style="stop-color:#DEDEDE"/>
						<stop  offset="1" style="stop-color:#F9F9F9"/>
					</linearGradient>
					<path id="XMLID_64_" class="st49" d="M169,210.2c-3.1-2.8-26.5-28.6-28.9-36.9c-3-10.7,2.2-15.5,4-12.8
						c2.5,3.7,16.4,27.1,30.9,43.9C170.4,205.4,168.7,209.1,169,210.2z"/>
					<linearGradient id="XMLID_225_" gradientUnits="userSpaceOnUse" x1="153.1032" y1="179.7776" x2="191.5722" y2="215.8301">
						<stop  offset="4.336450e-002" style="stop-color:#DEDEDE"/>
						<stop  offset="1" style="stop-color:#F9F9F9"/>
					</linearGradient>
					<path id="XMLID_63_" class="st50" d="M144.1,160.5c1,1.5,3.9,6.2,7.9,12.4c-2.1,3.9-3.9,7.6-4.3,12.5c0,0.1,0,0.2,0,0.3
						c-3.8-5.1-6.8-9.7-7.6-12.4C137.1,162.6,142.3,157.8,144.1,160.5z"/>
					<linearGradient id="XMLID_226_" gradientUnits="userSpaceOnUse" x1="127.8327" y1="206.9446" x2="128.8959" y2="133.9696">
						<stop  offset="0" style="stop-color:#DEDEDE"/>
						<stop  offset="1" style="stop-color:#F9F9F9"/>
					</linearGradient>
					<path id="XMLID_62_" class="st51" d="M114.1,206.4c-2-2.9-5.6-44.8,1.8-49.8c2.8-1.8,5.5-1.9,12.8-2.1c5.4-0.1,13.2,3.4,15,5.5
						c3.1,3.7,0.7,8.8,0.2,17.5c-0.7,13.4,1.3,27.6-1.7,29.6C139.1,209.1,115.5,208.6,114.1,206.4z"/>
					<linearGradient id="XMLID_228_" gradientUnits="userSpaceOnUse" x1="117.7868" y1="164.3126" x2="83.184" y2="274.9833">
						<stop  offset="4.336450e-002" style="stop-color:#DEDEDE"/>
						<stop  offset="1" style="stop-color:#F9F9F9"/>
					</linearGradient>
					<path id="XMLID_61_" class="st52" d="M115.9,156.6c0.2-0.1,6-0.9,5.8,5.8c-0.5,18.3-9.6,29.3-9.8,29.5
						C110.9,178.4,111.1,159.8,115.9,156.6z"/>
					<g id="XMLID_212_">
						<linearGradient id="XMLID_229_" gradientUnits="userSpaceOnUse" x1="96.571" y1="213.9283" x2="109.5229" y2="183.4816">
							<stop  offset="4.336450e-002" style="stop-color:#DEDEDE"/>
							<stop  offset="1" style="stop-color:#F9F9F9"/>
						</linearGradient>
						<path id="XMLID_60_" class="st53" d="M105.8,217c0.1-2,2-25.1,3.2-29.9c1.2-4.6,9.1-14.1,11.9-21.7c1.8-4.7,0.8-9.2-2.4-9.5
							c-7.2-0.8-19.8,26.7-21,31c-1.2,4.4-2.9,27-2.1,30.3C95.5,219.3,105.6,221.1,105.8,217z"/>
					</g>
				</g>
			</g>
		</g>
		<g id="XMLID_205_">
			
				<linearGradient id="XMLID_230_" gradientUnits="userSpaceOnUse" x1="-998.0892" y1="195.6136" x2="-1000.5947" y2="211.8155" gradientTransform="matrix(0.995 9.960000e-002 -9.960000e-002 0.995 1147.6212 31.3466)">
				<stop  offset="7.113820e-002" style="stop-color:#A04C33"/>
				<stop  offset="1" style="stop-color:#3B160E"/>
			</linearGradient>
			<path id="XMLID_59_" class="st54" d="M124.4,142.7c0,0,0.1-4.7,1.3-7.1c0.9-1.8,4.6-2.9,8.5-2.1c2.5,0.5,4.4,1.5,4.5,2.8
				c0.2,1.3,0.1,2.4,0.1,3.1C139,140.9,127,150.5,124.4,142.7z"/>
			
				<linearGradient id="XMLID_231_" gradientUnits="userSpaceOnUse" x1="-1001.3175" y1="232.5731" x2="-1000.5952" y2="219.0906" gradientTransform="matrix(0.995 9.960000e-002 -9.960000e-002 0.995 1147.6212 31.3466)">
				<stop  offset="0.2175" style="stop-color:#F7C3C1"/>
				<stop  offset="1" style="stop-color:#F3A396"/>
			</linearGradient>
			<path id="XMLID_58_" class="st55" d="M124.7,154.6c0,0,1.3-6.1,1.3-9l8.1,2.6c0,0-0.3,5.4,0.2,7
				C134.2,155.3,130.6,160.1,124.7,154.6z"/>
			
				<linearGradient id="XMLID_232_" gradientUnits="userSpaceOnUse" x1="-1000.3964" y1="225.054" x2="-999.5056" y2="205.5668" gradientTransform="matrix(0.995 9.960000e-002 -9.960000e-002 0.995 1147.6212 31.3466)">
				<stop  offset="0.2175" style="stop-color:#F7C3C1"/>
				<stop  offset="1" style="stop-color:#F3A396"/>
			</linearGradient>
			<path id="XMLID_57_" class="st56" d="M126.7,143.3c0-0.5-0.2-1-0.5-1.3c-0.2-0.2-0.6-0.4-1-0.4c-1.1,0.1-1.3,4.8,1,5.1
				c0,0-0.4,2.6,1.1,4.6c1.5,2.1,5.9,4,7.4,2.8c1.4-1.2,3.2-5,3.6-6.1c0.4-1.1,0.1-2.7,0.4-3.8c0.2-1.1,0.8-3.6,0.2-5.5
				c-0.3-1-0.8-0.2-2.2-0.7c-1.1-0.4-3.4-1.5-4.4-1.2c-1.4,0.4-1.1,1.6-1.9,2.3c-0.8,0.7-2.1,0.9-2.4,2.4c-0.3,1.4-0.3,3.5-0.4,3.7
				c0,0.1-0.7-0.2-0.8-0.4C126.7,144.7,126.7,143.9,126.7,143.3z"/>
		</g>
	</g>
	<g id="XMLID_184_">
		<g id="XMLID_185_">
			<g id="XMLID_197_">
				<g id="XMLID_201_">
					
						<linearGradient id="XMLID_233_" gradientUnits="userSpaceOnUse" x1="266.2712" y1="302.3666" x2="288.394" y2="302.3666" gradientTransform="matrix(-1 0 0 1 751.7683 0)">
						<stop  offset="0.1524" style="stop-color:#221D24"/>
						<stop  offset="1" style="stop-color:#49484B"/>
					</linearGradient>
					<path id="XMLID_56_" class="st57" d="M476.5,296.6c0,0-12.7,8.4-13.1,9.5c-0.6,2.1,6.4,2.5,10.8,2c5.7-0.8,10.3-1.9,11-2.4
						c0.7-0.5,0.2-6-0.7-6.9C483.6,297.6,477.4,296.1,476.5,296.6z"/>
					
						<linearGradient id="XMLID_237_" gradientUnits="userSpaceOnUse" x1="261.2688" y1="228.1495" x2="272.8961" y2="305.234" gradientTransform="matrix(-1 0 0 1 751.7683 0)">
						<stop  offset="4.674800e-002" style="stop-color:#1C1D3B"/>
						<stop  offset="0.9092" style="stop-color:#273573"/>
					</linearGradient>
					<path id="XMLID_55_" class="st58" d="M485.5,205.7l15.6,2.4c0.8,14-13.2,78.7-16,91.3c0,0-7.7,1.7-11.7-1.5
						C475.7,282.5,483.1,216.8,485.5,205.7z"/>
				</g>
				<g id="XMLID_198_">
					
						<linearGradient id="XMLID_238_" gradientUnits="userSpaceOnUse" x1="227.8662" y1="302.5235" x2="247.0492" y2="302.5235" gradientTransform="matrix(-1 0 0 1 751.7683 0)">
						<stop  offset="0.1524" style="stop-color:#221D24"/>
						<stop  offset="1" style="stop-color:#49484B"/>
					</linearGradient>
					<path id="XMLID_54_" class="st59" d="M515.2,295.7c0,0-9.4,9.7-10.3,11.1c-1.5,2.4,5.1,3.1,9.9,2.1c4.7-1,7.8-4.2,8.5-4.7
						c0.7-0.5,0.7-5.4-0.1-6.4C522.3,296.8,516.2,295.3,515.2,295.7z"/>
					
						<linearGradient id="XMLID_239_" gradientUnits="userSpaceOnUse" x1="642.6949" y1="190.3253" x2="647.7576" y2="272.5936" gradientTransform="matrix(1 0 0 1 -139.0933 0)">
						<stop  offset="4.674800e-002" style="stop-color:#1C1D3B"/>
						<stop  offset="0.7012" style="stop-color:#273573"/>
					</linearGradient>
					<path id="XMLID_53_" class="st60" d="M512.3,209.9c3.1,14.8-1.6,24.6,5,48.3c3.3,11.9,4.9,22,6.6,40.6c0,0-7.3,2.2-11.2-1
						c-1.1-11.6-7.1-28.5-9.5-35.6c-3-8.7-11.4-42.6-12-52.4H512.3z"/>
				</g>
			</g>
			<g id="XMLID_186_">
				<g id="XMLID_194_">
					
						<linearGradient id="XMLID_241_" gradientUnits="userSpaceOnUse" x1="624.9477" y1="231.7981" x2="626.3818" y2="255.103" gradientTransform="matrix(-0.8405 -0.5418 -0.5418 0.8405 1175.1014 283.4959)">
						<stop  offset="0.2175" style="stop-color:#F7C3C1"/>
						<stop  offset="1" style="stop-color:#F3A396"/>
					</linearGradient>
					<path id="XMLID_52_" class="st61" d="M520.1,160.7c0,0,0.2-3.1,1.4-4.8c1.2-1.7,6.6-7.4,5.5-11c-1.2-3.5-7.6-7.4-11.3-5
						c-1.9,1.3-3,2.1-3.5,2.9c-0.5,0.8-0.4,1.6-0.6,1.8c-0.9,0.8-3.3,1.1-3.4,1.7c-0.1,0.6,0.7,1.5,0.7,1.9c-0.1,0.4-2.1,4.8-2,6
						c0.1,0.8,4.4,1.6,4.7,1.9c0.7,0.9-2.5,5.6-2.5,5.6S515.6,162.4,520.1,160.7z"/>
					<linearGradient id="XMLID_243_" gradientUnits="userSpaceOnUse" x1="516.3558" y1="105.7379" x2="522.9283" y2="150.5862">
						<stop  offset="7.113820e-002" style="stop-color:#A04C33"/>
						<stop  offset="1" style="stop-color:#3B160E"/>
					</linearGradient>
					<path id="XMLID_51_" class="st62" d="M521.4,156.2c0,0,0-2.2,0.6-3.6c0.7-1.5,0-2.9-1-3.2c-1.1-0.3-2.2,1.1-2.2,1.1l-1.1-0.7
						c0,0,1.4-1.5,1.1-2.5c-0.3-1-1.5-2.2-1.1-2.7c0.4-0.6,2-1.8,1.6-2.9c-0.4-1.1-1.6-1.8-3.7-1.6c2.8-3.4,11.8,0.1,12.2,4.7
						C528.3,150.4,523.1,153.7,521.4,156.2z"/>
				</g>
				
					<linearGradient id="XMLID_245_" gradientUnits="userSpaceOnUse" x1="227.8301" y1="158.6454" x2="264.7456" y2="222.5744" gradientTransform="matrix(-1 0 0 1 751.7683 0)">
					<stop  offset="4.336450e-002" style="stop-color:#0067EB"/>
					<stop  offset="1" style="stop-color:#35A7F9"/>
				</linearGradient>
				<path id="XMLID_50_" class="st63" d="M510.1,159.5c2.4-0.8,6.2-1.4,10.1,1.1c3.7,2.3,5.5,8.3-2.2,21c-7.4,12-4.5,29.6-4.5,29.6
					s-23.3,6.8-30.5-2.3c0,0,3.1-20,8.6-29.1C497.2,170.8,502.2,162.1,510.1,159.5z"/>
				<g id="XMLID_187_">
					<g id="XMLID_191_">
						
							<linearGradient id="XMLID_246_" gradientUnits="userSpaceOnUse" x1="-1203.3521" y1="-77.3779" x2="-1186.8541" y2="-77.3779" gradientTransform="matrix(0.5737 0.9215 -0.9302 0.5796 1069.1527 1288.0996)">
							<stop  offset="0.2175" style="stop-color:#F7C3C1"/>
							<stop  offset="1" style="stop-color:#F3A396"/>
						</linearGradient>
						<path id="XMLID_49_" class="st64" d="M457.3,136.1c0,0,0.2,2.6-1,2.4c-1.6-0.3-4.7-2.9-5.4-3.2c-0.8-0.5-1.5-0.4-1.8,0.3
							c-0.3,0.7,0.5,1.7,0.5,1.7s-0.6-0.1-0.9,0.5c-0.7,1.1,1.1,2.3,1.1,2.3s-0.8-0.1-1,0.9c-0.1,0.9,0.8,1.8,0.8,1.8
							s-0.9,0.3-0.7,1.5c0.2,1.1,1.5,2.1,3,2.9c1.1,0.6,3.1,1.6,5.2,1.5c1.3,0,2.2-0.6,4.2-0.2c1.8,0.4,5.1-4.3,2-6.4
							c-1.6-1.1-1.7-2.5-2.4-3.3C459.1,136.7,458.2,136.2,457.3,136.1z"/>
					</g>
					<g id="XMLID_47_">
						
							<linearGradient id="XMLID_247_" gradientUnits="userSpaceOnUse" x1="301.4363" y1="146.1346" x2="224.2186" y2="168.4702" gradientTransform="matrix(-1 0 0 1 751.7683 0)">
							<stop  offset="4.336450e-002" style="stop-color:#0067EB"/>
							<stop  offset="1" style="stop-color:#35A7F9"/>
						</linearGradient>
						<path id="XMLID_179_" class="st65" d="M521.6,166.6c-1.3-6-12.6-6.6-18.6-8.5c-6.1-1.9-12.7-4.4-14.7-5.5
							c-4.8-2.6-25.4-12.5-25.4-12.5s-3.9,3.9-3.2,9.2c0,0,22.6,12.2,26.1,13.9c3.6,1.8,19.1,9.1,27.2,10.1
							C516.7,173.9,522.6,171.1,521.6,166.6z"/>
					</g>
				</g>
			</g>
		</g>
	</g>
	<g id="XMLID_12_">
		<g id="XMLID_31_">
			<polygon id="XMLID_174_" class="st34" points="439.3,68.7 388.9,18.4 338.6,68.7 351.1,68.7 351.1,135.6 426.8,135.6 426.8,68.7 
							"/>
		</g>
		<g id="XMLID_13_">
			<g id="XMLID_178_">
				<linearGradient id="XMLID_249_" gradientUnits="userSpaceOnUse" x1="391.6094" y1="305.1616" x2="391.6094" y2="289.7579">
					<stop  offset="0.2175" style="stop-color:#F9D4D4"/>
					<stop  offset="1" style="stop-color:#F4A9A8"/>
				</linearGradient>
				<path id="XMLID_29_" class="st66" d="M394.5,300.6c-0.8-2.5-0.4-6-0.4-6c-1.2-0.4-5.3,0.4-5.3,0.4s0.1,1.7,0.1,4.7
					C388.7,302.8,393.4,304.2,394.5,300.6z"/>
				<linearGradient id="XMLID_251_" gradientUnits="userSpaceOnUse" x1="391.5727" y1="309.207" x2="391.5727" y2="299.2429">
					<stop  offset="0.1524" style="stop-color:#221D24"/>
					<stop  offset="1" style="stop-color:#49484B"/>
				</linearGradient>
				<path id="XMLID_27_" class="st67" d="M388.8,299.8c-0.7,0.8-2.1,5.5-0.7,6.8c1.4,1.3,6.4,1,7.3-0.3c0.8-1.2-0.3-5.2-1.1-6.7
					C394.2,301.2,389.9,301.6,388.8,299.8z"/>
			</g>
			<g id="XMLID_175_">
				
					<linearGradient id="XMLID_253_" gradientUnits="userSpaceOnUse" x1="288.6273" y1="311.9003" x2="288.6273" y2="296.4972" gradientTransform="matrix(-0.994 0.1096 0.1096 0.994 666.5544 -36.5219)">
					<stop  offset="0.2175" style="stop-color:#F9D4D4"/>
					<stop  offset="1" style="stop-color:#F4A9A8"/>
				</linearGradient>
				<path id="XMLID_25_" class="st68" d="M410.5,301c0.5-2.6-0.2-6-0.2-6c1.1-0.5,5.3-0.1,5.3-0.1s0,1.7,0.4,4.6
					C416.5,302.5,412,304.3,410.5,301z"/>
				
					<linearGradient id="XMLID_254_" gradientUnits="userSpaceOnUse" x1="288.6631" y1="316.1601" x2="288.6631" y2="305.973" gradientTransform="matrix(-0.994 0.1096 0.1096 0.994 666.5544 -36.5219)">
					<stop  offset="0.1524" style="stop-color:#221D24"/>
					<stop  offset="1" style="stop-color:#49484B"/>
				</linearGradient>
				<path id="XMLID_24_" class="st69" d="M416,299.5c0.8,0.7,2.4,5.3,1.5,7.1c-0.7,1.2-6.3,1.3-7.3,0.1c-0.9-1.1-0.3-5.2,0.4-6.8
					C410.8,301.5,415.2,301.4,416,299.5z"/>
			</g>
			<linearGradient id="XMLID_255_" gradientUnits="userSpaceOnUse" x1="387.0145" y1="189.1288" x2="421.5527" y2="443.2693">
				<stop  offset="4.336450e-002" style="stop-color:#0067EB"/>
				<stop  offset="1" style="stop-color:#35A7F9"/>
			</linearGradient>
			<path id="XMLID_23_" class="st70" d="M377.8,207c0,0-3.1,8.3-3.8,16.3c-0.6,8,6,35,6.7,40.4c0.7,5.4,1.1,11.9,2.9,18
				c1.8,6.1,4.5,14.2,4.3,15.4c0,0,5.4,1,6.8-0.9c0,0-1.1-15.2-1.4-18.5c-0.3-3.2-2.6-12.4-2.7-15.3c-0.2-2.9,0.3-31.7,0.9-32.7
				c0,0,10.3,30.4,10.9,33c0.6,2.7,1.1,7.8,2,12.2c0.8,4.4,4.6,20.1,4.7,21.1c0,0,4.9,1.4,7.5-0.7c0,0-0.5-16.4-0.7-19.2
				c-0.2-2.8-2.4-12.4-2.9-14.7c-0.5-2.4-2.7-36.5-3.6-41.2c-0.8-4.7-3-11.2-3-11.2S381.3,206.9,377.8,207z"/>
			<g id="XMLID_14_">
				<linearGradient id="XMLID_257_" gradientUnits="userSpaceOnUse" x1="425.8683" y1="116.5479" x2="427.1571" y2="140.7763">
					<stop  offset="0.2175" style="stop-color:#F7C3C1"/>
					<stop  offset="1" style="stop-color:#F3A396"/>
				</linearGradient>
				<path id="XMLID_8_" class="st71" d="M427.4,139.6c0,0,0.3-3.6,0.8-3.9c0.4-0.4,1.6-1.2,1.8-1.7c0.5-1.3,1.1-3,0.8-6.1
					c-0.3-2.5-1.9-6.3-3.3-5.8c-1.5,0.5-1.2,6.5-2.1,6.8c-0.6,0.2-0.5-4.4-1.8-4c-1.2,0.4-0.8,7.5-0.6,8.3c0.2,0.8,0.6,1.1,0.8,1.8
					c0.1,0.4-0.9,4.4-0.9,4.4L427.4,139.6z"/>
				<g id="XMLID_32_">
					<g id="XMLID_33_">
						<linearGradient id="XMLID_259_" gradientUnits="userSpaceOnUse" x1="351.9748" y1="120.4784" x2="353.2635" y2="144.7069">
							<stop  offset="0.2175" style="stop-color:#F7C3C1"/>
							<stop  offset="1" style="stop-color:#F3A396"/>
						</linearGradient>
						<path id="XMLID_7_" class="st72" d="M353.1,145c0,0-0.8-3.5-1.3-3.8c-0.5-0.3-1.7-0.9-2-1.5c-0.7-1.2-1.5-2.8-1.6-6
							c-0.1-2.5,1-6.5,2.4-6.2c1.6,0.3,2.1,6.2,3,6.4c0.6,0.1-0.1-4.4,1.2-4.2c1.3,0.2,1.9,7.3,1.8,8.2c-0.1,0.8-0.4,1.2-0.5,1.8
							c0,0.4,1.5,4.2,1.5,4.2L353.1,145z"/>
						<linearGradient id="XMLID_261_" gradientUnits="userSpaceOnUse" x1="390.1891" y1="123.4133" x2="390.1891" y2="209.0622">
							<stop  offset="4.506440e-002" style="stop-color:#D10473"/>
							<stop  offset="0.9957" style="stop-color:#B80464"/>
						</linearGradient>
						<path id="XMLID_6_" class="st73" d="M429,138c0-1.1-4.8-2.6-5.9-1.5c-1.1,1.1-0.6,6.7-4.3,14.1c-3.8,7.5-9.9,14.9-13.2,16.8
							c-6.3,3.6-15.4,4.6-26.8,1c-3.9-1.2-10.8-6.8-15.6-13.7c-4.7-6.7-5-12.4-6.2-13.3c-1.2-0.9-5.7,1.3-5.6,2.3
							c0.5,5.4,4.2,13.5,7.8,19c5.8,8.8,18.9,20.6,20.6,22.2c0.3,4,0.5,8,0.2,11c-0.9,8-2.9,11.2-4.3,13.7c-0.5,1,8.1,4.9,16.7,5.2
							c7.7,0.2,15.3-3,15.1-4c-0.5-1.9-2.2-8.5-1.8-11.7c0.5-4.7,1.9-11.7,3-17.8l0,0c1.5-1.8,10.8-13.8,15.3-23.4
							C426.8,152,429.3,143.5,429,138z"/>
					</g>
				</g>
				<linearGradient id="XMLID_262_" gradientUnits="userSpaceOnUse" x1="392.8948" y1="190.9731" x2="392.8948" y2="141.5511">
					<stop  offset="4.674800e-002" style="stop-color:#1C1D3B"/>
					<stop  offset="0.7012" style="stop-color:#273573"/>
				</linearGradient>
				<path id="XMLID_5_" class="st74" d="M383.7,171.1c2.8,3.7,14.7,3.1,18.5,0.2c-1.7-4.4,0-17-2.3-21.9c-2.8-5.8-11.6-5.7-14.7-0.3
					C381.1,156.2,386.3,164.5,383.7,171.1z"/>
			</g>
		</g>
	</g>
	<polygon id="XMLID_4_" class="st33" points="160.1,110.8 210.4,161.2 260.7,110.8 248.2,110.8 248.2,44 172.6,44 172.6,110.8 	"/>
</g>
</svg>
